<svg xmlns="http://www.w3.org/2000/svg" width="21.333" height="21.333" preserveAspectRatio="xMidYMid meet" version="1.0" viewBox="0 0 16 16"><g fill="#000" stroke="none"><path d="M25 100 c28 -12 37 -12 30 0 -3 6 -16 10 -28 9 -21 0 -21 -1 -2 -9z" transform="translate(0.000000,16.000000) scale(0.100000,-0.100000)"/><path d="M66 58 c-9 -37 -7 -43 9 -22 16 21 19 44 6 44 -5 0 -11 -10 -15 -22z" transform="translate(0.000000,16.000000) scale(0.100000,-0.100000)"/><path d="M30 60 c0 -5 5 -10 10 -10 6 0 10 5 10 10 0 6 -4 10 -10 10 -5 0 -10 -4 -10 -10z" transform="translate(0.000000,16.000000) scale(0.100000,-0.100000)"/></g></svg>