<svg  version="1.2" viewBox="0 0 255 72" xml:space="preserve" xmlns="http://www.w3.org/2000/svg">
<path d="m44.8 13.4c0 3.9-3.1 7-7 7s-7-3.1-7-7 3.1-7 7-7 7 3.1 7 7z" fill="#EF7C26"></path>
    <path d="m16.1 38.9c3.4-1.9 7.6-0.8 9.6 2.6 1.9 3.3 0.8 7.6-2.6 9.6-3.4 1.9-7.6 0.8-9.6-2.6-1.9-3.4-0.8-7.7 2.6-9.6z" fill="#087EC4"></path>
    <path d="m51.9 26.3l9.9-9.9c1.6-1.6 1.6-4.3 0-6-1.6-1.6-4.3-1.6-6 0l-18 18.1-18-18.1c-1.6-1.6-4.3-1.6-6 0-1.6 1.6-1.6 4.3 0 6l9.9 9.9 14.1 3.8 14.1-3.8z" fill="#EF7C26"></path>
    <path d="m23.7 26.3l-13.6-3.6c-2.2-0.6-4.6 0.7-5.2 3-0.6 2.2 0.7 4.6 3 5.2l24.7 6.6-6.6 24.7c-0.6 2.2 0.7 4.6 3 5.2 0.4 0.1 0.7 0.1 1.1 0.1 1.9 0 3.6-1.2 4.1-3.1l3.6-13.6-3.8-14.1-10.3-10.4z" fill="#087EC4"></path>
    <path d="m33.8 35.6c-0.3-1.1-0.1-2.2 0.4-3.2 0.6-1 1.5-1.7 2.6-2l1.1-0.3-14.1-3.8 10.3 10.3-0.3-1z" fill="#39B54A"></path>
    <path d="m70.6 25.7c-0.6-2.2-2.9-3.6-5.2-3l-13.6 3.6-10.2 10.3-3.8 14.1 3.6 13.6c0.5 1.9 2.2 3.1 4.1 3.1 0.4 0 0.7-0.1 1.1-0.1 2.2-0.6 3.6-2.9 3-5.2l-6.6-24.7 24.7-6.6c2.2-0.6 3.5-2.9 2.9-5.1z" fill="#39B54A"></path>
    <path d="m38.9 30.4c2.2 0.6 3.6 2.9 3 5.2l-0.3 1.1 10.3-10.3-14.1 3.8 1.1 0.2z" fill="#8CC63F"></path>
    <path d="m40.8 37.4c-0.8 0.8-1.9 1.2-3 1.2s-2.2-0.4-3-1.2l-0.8-0.8 3.8 14.1 3.8-14.1-0.8 0.8z" fill="#006837"></path>
    <path d="m52.5 51.1c-3.4-1.9-4.5-6.2-2.6-9.6s6.2-4.5 9.6-2.6 4.5 6.2 2.6 9.6c-1.9 3.3-6.2 4.5-9.6 2.6z" fill="#39B54A"></path>
    <g data-logo="true" fill="#1c453c">
<path d="m79.3 10.7c-0.2-0.5-0.5-0.6-0.9-0.6h-0.4v-2.5h1.6c1.4 0 1.9 0.3 2.4 1.7l4.4 12.5c0.4 1.1 0.8 2.8 0.8 2.8h0.1s0.4-1.7 0.8-2.8l4.4-12.5c0.5-1.3 0.9-1.7 2.4-1.7h1.6v2.5h-0.5c-0.5 0-0.8 0.1-0.9 0.6l-6.4 17.1h-3l-6.4-17.1z"></path>
        <path d="m104 13c4.3 0 7.8 3.2 7.8 7.6s-3.5 7.6-7.8 7.6-7.8-3.2-7.8-7.6 3.5-7.6 7.8-7.6zm0 12.8c2.7 0 5-2.2 5-5.2s-2.2-5.2-5-5.2c-2.7 0-5 2.1-5 5.2 0.1 3 2.3 5.2 5 5.2z"></path>
        <path d="m115 10.6c0-0.4-0.2-0.6-0.6-0.6h-1.2v-2.4h2.8c1.3 0 1.8 0.5 1.8 1.8v15.4c0 0.4 0.2 0.6 0.6 0.6h1.2v2.4h-2.8c-1.3 0-1.8-0.5-1.8-1.8v-15.4z"></path>
        <path d="m122.7 16.4c0-0.4-0.2-0.6-0.6-0.6h-1.2v-2.4h2.7c1.3 0 1.9 0.5 1.9 1.8v6.8c0 2 0.4 3.6 2.7 3.6 3 0 4.7-2.6 4.7-5.5v-6.8h2.8v11.5c0 0.4 0.2 0.6 0.6 0.6h1.2v2.4h-2.7c-1.2 0-1.8-0.6-1.8-1.6v-0.5-0.8c-0.6 1.4-2.5 3.3-5.3 3.3-3.3 0-4.9-1.7-4.9-5.6v-6.2z"></path>
        <path d="m140.5 16.4c0-0.4-0.2-0.6-0.6-0.6h-1.2v-2.4h2.7c1.2 0 1.8 0.5 1.8 1.6v0.5c0 0.5-0.1 0.8-0.1 0.8h0.1c0.6-1.3 2.3-3.3 5.5-3.3 3.4 0 5 1.9 5 5.6v6.3c0 0.4 0.2 0.6 0.6 0.6h1.2v2.4h-2.8c-1.3 0-1.8-0.5-1.8-1.8v-6.8c0-2-0.4-3.6-2.7-3.6-2.2 0-4 1.5-4.6 3.6-0.2 0.6-0.3 1.2-0.3 2v6.8h-2.8v-11.7z"></path>
        <path d="m158.6 15.6h-1.9v-2.2h1.9v-4h2.7v4h3.5v2.2h-3.5v6.7c0 2.9 2 3.3 3.1 3.3 0.4 0 0.7-0.1 0.7-0.1v2.5s-0.4 0.1-1 0.1c-1.8 0-5.5-0.6-5.5-5.4v-7.1z"></path>
        <path d="m174.2 13c4.1 0 6.3 3 6.3 6.8 0 0.4-0.1 1.1-0.1 1.1h-10.6c0.2 3.1 2.4 4.8 5 4.8 2.5 0 4.2-1.7 4.2-1.7l1.2 2s-2.2 2.1-5.6 2.1c-4.6 0-7.7-3.3-7.7-7.6 0-4.5 3.2-7.5 7.3-7.5zm3.4 5.9c-0.1-2.4-1.6-3.7-3.4-3.7-2.1 0-3.8 1.3-4.3 3.7h7.7z"></path>
        <path d="m190 13c4.1 0 6.3 3 6.3 6.8 0 0.4-0.1 1.1-0.1 1.1h-10.6c0.2 3.1 2.4 4.8 5 4.8 2.5 0 4.2-1.7 4.2-1.7l1.2 2s-2.1 2.1-5.6 2.1c-4.6 0-7.7-3.3-7.7-7.6 0-4.5 3.2-7.5 7.3-7.5zm3.4 5.9c-0.1-2.4-1.6-3.7-3.4-3.7-2.1 0-3.8 1.3-4.3 3.7h7.7z"></path>
        <path d="m200 16.4c0-0.4-0.2-0.6-0.6-0.6h-1.2v-2.4h2.6c1.3 0 1.9 0.5 1.9 1.7v0.9c0 0.6-0.1 1-0.1 1h0.1c0.7-2.1 2.3-3.8 4.6-3.8 0.4 0 0.7 0.1 0.7 0.1v2.7s-0.4-0.1-0.8-0.1c-1.8 0-3.4 1.3-4.1 3.4-0.3 0.8-0.3 1.7-0.3 2.6v5.9h-2.8v-11.4z"></path>
        <path d="m211.2 16.4c0-0.4-0.2-0.6-0.6-0.6h-1.2v-2.4h2.7c1.3 0 1.8 0.5 1.8 1.8v9.7c0 0.4 0.2 0.6 0.6 0.6h1.2v2.4h-2.7c-1.3 0-1.8-0.5-1.8-1.8v-9.7zm0.1-8.8h2.5v2.9h-2.5v-2.9z"></path>
        <path d="m219 16.4c0-0.4-0.2-0.6-0.6-0.6h-1.2v-2.4h2.7c1.2 0 1.8 0.5 1.8 1.6v0.5c0 0.5-0.1 0.8-0.1 0.8h0.1c0.6-1.3 2.3-3.3 5.5-3.3 3.4 0 5 1.9 5 5.6v6.3c0 0.4 0.2 0.6 0.6 0.6h1.2v2.4h-2.8c-1.3 0-1.8-0.5-1.8-1.8v-6.8c0-2-0.4-3.6-2.7-3.6-2.2 0-4 1.5-4.6 3.6-0.2 0.6-0.3 1.2-0.3 2v6.8h-2.8v-11.7z"></path>
        <path d="m241.9 13c3.6 0 4.6 2.3 4.6 2.3h0.1v-0.5c0-0.9 0.5-1.5 1.6-1.5h2.7v2.4h-1.1c-0.4 0-0.6 0.2-0.6 0.6v11c0 4.8-3.6 6.6-7.3 6.6-1.8 0-3.5-0.5-5-1.2l0.9-2.2s1.8 1 4 1c2.5 0 4.6-1.1 4.6-4v-1c0-0.5 0.1-0.9 0.1-0.9h-0.1c-0.9 1.4-2.2 2.2-4.3 2.2-4 0-6.5-3.2-6.5-7.4-0.1-4.3 2.2-7.4 6.3-7.4zm4.5 7.3c0-3.8-1.9-4.9-4.1-4.9-2.5 0-4 1.8-4 4.8s1.6 5.1 4.2 5.1c2.1 0 3.9-1.2 3.9-5z"></path>
        <path d="m80.2 47.9s2.1 2.4 5.1 2.4c1.9 0 3.5-1.1 3.5-3 0-4.2-9.8-3.6-9.8-9.9 0-3 2.7-5.4 6.5-5.4 2.2 0 5.8 1 5.8 3.7v1.7h-2.6v-0.9c0-1.1-1.5-1.8-3.1-1.8-2.2 0-3.6 1.2-3.6 2.7 0 4.1 9.8 3.2 9.8 9.8 0 3.1-2.4 5.8-6.4 5.8-4.3 0-6.7-3-6.7-3l1.5-2.1z"></path>
        <path d="m101.8 37.7c4.3 0 7.8 3.2 7.8 7.6s-3.5 7.6-7.8 7.6-7.8-3.2-7.8-7.6 3.5-7.6 7.8-7.6zm0 12.8c2.7 0 5-2.2 5-5.2s-2.2-5.2-5-5.2c-2.7 0-5 2.1-5 5.2 0.1 3 2.3 5.2 5 5.2z"></path>
        <path d="m112.8 35.3c0-0.4-0.2-0.6-0.6-0.6h-1.2v-2.4h2.8c1.3 0 1.8 0.5 1.8 1.8v15.4c0 0.4 0.2 0.6 0.6 0.6h1.2v2.4h-2.8c-1.3 0-1.8-0.6-1.8-1.8v-15.4z"></path>
        <path d="m120.5 41.1c0-0.4-0.2-0.6-0.6-0.6h-1.2v-2.4h2.7c1.3 0 1.9 0.5 1.9 1.8v6.9c0 2 0.4 3.6 2.7 3.6 3 0 4.7-2.6 4.7-5.5v-6.8h2.8v11.5c0 0.4 0.2 0.6 0.6 0.6h1.2v2.4h-2.7c-1.2 0-1.8-0.6-1.8-1.6v-0.5-0.8h-0.1c-0.6 1.4-2.5 3.3-5.3 3.3-3.3 0-4.9-1.7-4.9-5.6v-6.3z"></path>
        <path d="m138.5 40.3h-1.9v-2.2h1.9v-4h2.7v4h3.5v2.2h-3.5v6.6c0 2.9 2 3.3 3.1 3.3 0.4 0 0.7-0.1 0.7-0.1v2.5h-1c-1.8 0-5.5-0.6-5.5-5.4v-6.9z"></path>
        <path d="m148.6 41.1c0-0.4-0.2-0.6-0.6-0.6h-1.2v-2.4h2.7c1.3 0 1.8 0.5 1.8 1.8v9.7c0 0.4 0.2 0.6 0.6 0.6h1.2v2.4h-2.7c-1.3 0-1.8-0.6-1.8-1.8v-9.7zm0-8.8h2.5v2.9h-2.5v-2.9z"></path>
        <path d="m162.7 37.7c4.3 0 7.8 3.2 7.8 7.6s-3.5 7.6-7.8 7.6-7.8-3.2-7.8-7.6 3.5-7.6 7.8-7.6zm0 12.8c2.7 0 5-2.2 5-5.2s-2.2-5.2-5-5.2c-2.7 0-5 2.1-5 5.2 0 3 2.3 5.2 5 5.2z"></path>
        <path d="m174 41.1c0-0.4-0.2-0.6-0.6-0.6h-1.2v-2.4h2.7c1.2 0 1.8 0.5 1.8 1.6v0.5c0 0.5-0.1 0.8-0.1 0.8h0.1c0.6-1.3 2.3-3.3 5.4-3.3 3.4 0 5 1.9 5 5.6v6.3c0 0.4 0.2 0.6 0.6 0.6h1.2v2.4h-2.7c-1.3 0-1.8-0.6-1.8-1.8v-6.8c0-2-0.4-3.6-2.7-3.6-2.2 0-4 1.5-4.6 3.6-0.2 0.6-0.3 1.2-0.3 1.9v6.8h-2.8v-11.6z"></path>
        <path d="m191.7 48.5s1.7 2.1 4.4 2.1c1.3 0 2.5-0.6 2.5-1.9 0-2.6-7.9-2.3-7.9-7 0-2.8 2.4-4.1 5.4-4.1 1.7 0 4.8 0.6 4.8 2.8v1.4h-2.5v-0.7c0-0.9-1.3-1.2-2.2-1.2-1.6 0-2.7 0.6-2.7 1.7 0 2.8 7.9 2.2 7.9 7 0 2.6-2.3 4.2-5.3 4.2-3.9 0-5.8-2.6-5.8-2.6l1.4-1.7z"></path>
</g>
    <g fill="#EF7C26">
<path d="m80.2 66.2l-2.2-6.9h1.4l0.9 3.1c0.3 0.9 0.5 1.7 0.7 2.5 0.2-0.8 0.4-1.7 0.7-2.5l1-3.2h1.3l-2.4 6.9h-1.4z"></path>
        <path d="m92.4 62.7c0 2.3-1.4 3.6-3.3 3.6s-3.2-1.5-3.2-3.5c0-2.1 1.3-3.6 3.3-3.6s3.2 1.5 3.2 3.5zm-5.2 0.1c0 1.4 0.7 2.5 1.9 2.5s1.9-1.1 1.9-2.6c0-1.3-0.6-2.5-1.9-2.5-1.2 0-1.9 1.2-1.9 2.6z"></path>
        <path d="m94.9 59.3h1.3v5.9h2.8v1.1h-4.1v-7z"></path>
        <path d="m102.4 59.3v4c0 1.4 0.6 2 1.4 2 0.9 0 1.5-0.6 1.5-2v-4h1.3v3.9c0 2.1-1.1 3.1-2.8 3.1-1.6 0-2.6-0.9-2.6-3.1v-4h1.2z"></path>
        <path d="m109.5 66.2v-6.9h1.4l1.8 3c0.5 0.8 0.9 1.6 1.2 2.3-0.1-0.9-0.1-1.8-0.1-2.9v-2.4h1.2v6.9h-1.3l-1.8-3c-0.4-0.8-0.9-1.6-1.2-2.4 0.1 0.9 0.1 1.8 0.1 2.9v2.5h-1.3z"></path>
        <path d="m119.2 60.3h-2v-1.1h5.2v1.1h-2v5.9h-1.3v-5.9z"></path>
        <path d="M128.6,63.1H126v2h2.9v1h-4.2v-6.9h4v1H126v1.8h2.6V63.1z"></path>
        <path d="m135.4 63.1h-2.6v2h2.9v1h-4.2v-6.9h4v1h-2.8v1.8h2.6v1.1z"></path>
        <path d="m138.3 59.4c0.5-0.1 1.2-0.1 1.9-0.1 1 0 1.7 0.2 2.1 0.6 0.4 0.3 0.6 0.8 0.6 1.4 0 0.9-0.6 1.5-1.2 1.7 0.5 0.2 0.8 0.7 1 1.3 0.2 0.9 0.4 1.7 0.5 1.9h-1.3c-0.1-0.2-0.3-0.8-0.5-1.6-0.2-0.9-0.5-1.2-1.2-1.2h-0.6v2.8h-1.3v-6.8zm1.2 3h0.7c0.9 0 1.4-0.5 1.4-1.1 0-0.8-0.5-1.1-1.4-1.1-0.4 0-0.7 0-0.8 0.1v2.1z"></path>
        <path d="m151.4 63v0.9h-2.6v-0.9h2.6z"></path>
        <path d="m158.8 59.3v6.9h-1.3v-6.9h1.3z"></path>
        <path d="m161.7 66.2v-6.9h1.4l1.8 3c0.5 0.8 0.9 1.6 1.2 2.3-0.1-0.9-0.1-1.8-0.1-2.9v-2.4h1.2v6.9h-1.3l-1.8-3c-0.4-0.8-0.9-1.6-1.2-2.4 0.1 0.9 0.1 1.8 0.1 2.9v2.5h-1.3z"></path>
        <path d="m171.5 60.3h-2v-1.1h5.2v1.1h-2v5.9h-1.3v-5.9z"></path>
        <path d="m180.9 63.1h-2.6v2h2.9v1h-4.2v-6.9h4v1h-2.8v1.8h2.6v1.1z"></path>
        <path d="m183.8 59.4c0.5-0.1 1.2-0.1 1.9-0.1 1 0 1.7 0.2 2.1 0.6 0.4 0.3 0.6 0.8 0.6 1.4 0 0.9-0.6 1.5-1.2 1.7 0.5 0.2 0.8 0.7 1 1.3 0.2 0.9 0.4 1.7 0.5 1.9h-1.3c-0.1-0.2-0.3-0.8-0.5-1.6-0.2-0.9-0.5-1.2-1.2-1.2h-0.7v2.8h-1.3v-6.8zm1.2 3h0.7c0.9 0 1.4-0.5 1.4-1.1 0-0.8-0.5-1.1-1.4-1.1-0.4 0-0.7 0-0.8 0.1v2.1z"></path>
        <path d="m191.1 66.2v-6.9h1.4l1.8 3c0.5 0.8 0.9 1.6 1.2 2.3-0.1-0.9-0.1-1.8-0.1-2.9v-2.4h1.2v6.9h-1.3l-1.8-3c-0.4-0.8-0.9-1.6-1.2-2.4 0.1 0.9 0.1 1.8 0.1 2.9v2.5h-1.3z"></path>
        <path d="m205.3 63v0.9h-2.6v-0.9h2.6z"></path>
        <path d="m212.3 60.3h-2v-1.1h5.2v1.1h-2v5.9h-1.3v-5.9z"></path>
        <path d="m217.9 59.4c0.5-0.1 1.2-0.1 1.9-0.1 1 0 1.7 0.2 2.1 0.6 0.4 0.3 0.6 0.8 0.6 1.4 0 0.9-0.6 1.5-1.3 1.7 0.5 0.2 0.8 0.7 1 1.3 0.2 0.9 0.4 1.7 0.5 1.9h-1.3c-0.1-0.2-0.3-0.8-0.5-1.6-0.2-0.9-0.5-1.2-1.2-1.2h-0.6v2.8h-1.3v-6.8zm1.2 3h0.7c0.9 0 1.4-0.5 1.4-1.1 0-0.8-0.5-1.1-1.4-1.1-0.4 0-0.7 0-0.8 0.1v2.1z"></path>
        <path d="m226.7 64.2l-0.6 2h-1.3l2.2-6.9h1.6l2.2 6.9h-1.4l-0.6-2h-2.1zm1.9-0.9l-0.5-1.7c-0.1-0.4-0.2-0.9-0.3-1.3-0.1 0.4-0.2 0.9-0.3 1.3l-0.5 1.7h1.6z"></path>
        <path d="m234.3 66.2l-2.2-6.9h1.4l0.9 3.1c0.3 0.9 0.5 1.7 0.7 2.5 0.2-0.8 0.4-1.7 0.7-2.5l1-3.2h1.3l-2.4 6.9h-1.4z"></path>
        <path d="m244.2 63.1h-2.6v2h2.9v1h-4.2v-6.9h4v1h-2.8v1.8h2.6v1.1z"></path>
        <path d="m247.1 59.3h1.3v5.9h2.8v1.1h-4.1v-7z"></path>
</g>
</svg>